<mxfile host="app.diagrams.net" modified="2024-05-22T10:50:16.703Z" agent="Mozilla/5.0 (Macintosh; Intel Mac OS X 10_15_7) AppleWebKit/605.1.15 (KHTML, like Gecko) Version/17.4.1 Safari/605.1.15" version="24.4.5" etag="ONXOi_xu4gTFJLD4xGmN" type="github">
  <diagram name="Page-1" id="lvo3AoPfdOrSd7TSI2hi">
    <mxGraphModel>
      <root>
        <mxCell id="0" />
        <mxCell id="1" parent="0" />
      </root>
    </mxGraphModel>
  </diagram>
</mxfile>
